<?xml version="1.0" encoding="iso-8859-1"?>
<!-- Generator: Adobe Illustrator 25.2.0, SVG Export Plug-In . SVG Version: 6.00 Build 0)  -->
<svg id="Layer_1" style="enable-background:new 0 0 1000 1000;" version="1.1" viewBox="0 0 1000 1000"
     x="0px"
     xml:space="preserve" xmlns="http://www.w3.org/2000/svg" y="0px">
<g id="watermark">
	<g>
		<g>
			<g>
				<g>
					<polygon points="436.588,945.438 426.857,967.917 421.719,967.917 412.021,945.438 417.641,945.438
						424.481,961.495 431.417,945.438 					" style="fill:#606060;"/>
				</g>
        <g>
					<path d="M453.638,960.435h-13.07c0.481,2.152,2.312,3.468,4.946,3.468c1.83,0,3.147-0.546,4.335-1.67
						l2.665,2.89c-1.606,1.831-4.014,2.794-7.129,2.794c-5.973,0-9.859-3.757-9.859-8.896c0-5.17,3.95-8.895,9.217-8.895
						c5.073,0,8.992,3.404,8.992,8.96C453.734,959.472,453.67,960.018,453.638,960.435 M440.503,957.513h8.51
						c-0.354-2.184-1.992-3.597-4.239-3.597C442.494,953.916,440.856,955.297,440.503,957.513" style="fill:#606060;"/>
				</g>
        <g>
					<path d="M455.787,959.022c0-5.202,4.014-8.895,9.634-8.895c3.629,0,6.487,1.574,7.739,4.4l-3.886,2.087
						c-0.932-1.638-2.312-2.376-3.886-2.376c-2.537,0-4.528,1.766-4.528,4.785c0,3.019,1.991,4.785,4.528,4.785
						c1.574,0,2.954-0.707,3.886-2.376l3.886,2.119c-1.252,2.762-4.111,4.367-7.739,4.367
						C459.801,967.917,455.787,964.225,455.787,959.022" style="fill:#606060;"/>
				</g>
        <g>
					<path d="M487.449,966.826c-1.028,0.739-2.537,1.092-4.079,1.092c-4.078,0-6.455-2.087-6.455-6.198
						v-7.097h-2.666v-3.854h2.666v-4.206h5.01v4.206h4.303v3.854h-4.303v7.033c0,1.477,0.802,2.28,2.151,2.28
						c0.738,0,1.477-0.224,2.023-0.642L487.449,966.826z" style="fill:#606060;"/>
				</g>
			</g>
      <g>
				<path d="M521.829,950.383v4.624c-0.417-0.032-0.738-0.064-1.124-0.064c-2.761,0-4.592,1.509-4.592,4.817
					v8.157h-5.01V950.64h4.785v2.28C517.109,951.25,519.164,950.383,521.829,950.383" style="fill:#606060;"/>
			</g>
      <g>
				<path d="M523.274,965.316l1.766-3.918c1.895,1.381,4.721,2.344,7.418,2.344
					c3.083,0,4.335-1.028,4.335-2.409c0-4.207-13.07-1.316-13.07-9.666c0-3.821,3.083-7.001,9.473-7.001
					c2.826,0,5.716,0.674,7.804,1.991l-1.606,3.95c-2.087-1.188-4.239-1.766-6.23-1.766c-3.083,0-4.271,1.156-4.271,2.569
					c0,4.143,13.07,1.284,13.07,9.538c0,3.758-3.115,6.969-9.537,6.969C528.861,967.917,525.265,966.858,523.274,965.316" style="fill:#606060;"/>
			</g>
      <g>
				<path d="M562,960.435h-13.07c0.481,2.152,2.312,3.468,4.946,3.468c1.83,0,3.147-0.546,4.335-1.67
					l2.666,2.89c-1.606,1.831-4.014,2.794-7.129,2.794c-5.973,0-9.859-3.757-9.859-8.896c0-5.17,3.95-8.895,9.216-8.895
					c5.074,0,8.992,3.404,8.992,8.96C562.097,959.472,562.032,960.018,562,960.435 M548.865,957.513h8.51
					c-0.353-2.184-1.991-3.597-4.239-3.597C550.856,953.916,549.219,955.297,548.865,957.513" style="fill:#606060;"/>
			</g>
      <g>
				<path d="M582.261,960.435h-13.07c0.481,2.152,2.312,3.468,4.945,3.468c1.831,0,3.147-0.546,4.335-1.67
					l2.666,2.89c-1.606,1.831-4.014,2.794-7.129,2.794c-5.973,0-9.859-3.757-9.859-8.896c0-5.17,3.95-8.895,9.217-8.895
					c5.074,0,8.992,3.404,8.992,8.96C582.358,959.472,582.294,960.018,582.261,960.435 M569.127,957.513h8.51
					c-0.353-2.184-1.991-3.597-4.239-3.597C571.118,953.916,569.48,955.297,569.127,957.513" style="fill:#606060;"/>
			</g>
      <g>
				<polygon points="593.114,961.141 590.705,963.518 590.705,967.917 585.696,967.917 585.696,944.09
					590.705,944.09 590.705,957.577 598.027,950.64 604,950.64 596.807,957.962 604.642,967.917 598.573,967.917 				" style="fill:#606060;"/>
			</g>
      <g>
				<path d="M511.552,970.267L511.552,970.267l-5.005-5.005c-0.762,0.89-1.668,1.651-2.684,2.247
					c-0.162,0.12-0.326,0.238-0.495,0.348l5.297,5.297c0.797,0.797,2.09,0.797,2.888,0
					C512.349,972.357,512.349,971.064,511.552,970.267" style="fill:#606060;"/>
			</g>
      <g>
				<path d="M499.972,949.065c0.386-0.303,0.866-0.492,1.395-0.492c0.073,0,0.146,0.004,0.217,0.01
					c-0.375-0.274-0.837-0.436-1.337-0.436c-0.691,0-1.301,0.315-1.718,0.802c-0.089,0-0.175,0.01-0.264,0.013
					c0.069-0.134,0.112-0.284,0.112-0.446c0-0.409-0.25-0.76-0.605-0.908c0.152,0.221,0.242,0.489,0.242,0.778
					c0,0.214-0.053,0.415-0.141,0.596c-4.918,0.351-8.802,4.442-8.802,9.45c0,5.238,4.246,9.484,9.485,9.484
					c5.239,0,9.485-4.246,9.485-9.484C508.042,953.676,504.537,949.75,499.972,949.065 M496.471,951.536
					c0.761,0,1.477,0.196,2.099,0.541c0.654-0.428,1.435-0.677,2.273-0.677c1.244,0,2.359,0.547,3.121,1.411
					c-0.762-0.664-1.757-1.067-2.847-1.067c-0.785,0-1.523,0.21-2.159,0.576c-0.139,0.08-0.273,0.167-0.401,0.262
					c-0.114-0.083-0.233-0.163-0.357-0.235c-0.646-0.383-1.4-0.602-2.205-0.602c-0.525,0-1.028,0.094-1.495,0.266
					C495.092,951.708,495.762,951.536,496.471,951.536 M503.101,959.31c0.201,0.533,0.316,1.109,0.316,1.713
					c0,2.685-2.176,4.86-4.861,4.86c-2.684,0-4.86-2.176-4.86-4.86c0-0.604,0.115-1.179,0.316-1.713
					c-1.085-0.668-1.811-1.863-1.811-3.23c0-2.095,1.699-3.794,3.794-3.794c0.988,0,1.886,0.381,2.561,1
					c0.675-0.619,1.572-1,2.561-1c2.095,0,3.794,1.699,3.794,3.794C504.912,957.447,504.186,958.642,503.101,959.31" style="fill:#F84D10;"/>
			</g>
      <g>
				<path d="M502.916,955.745c0,0.87-0.706,1.576-1.576,1.576c-0.869,0-1.576-0.707-1.576-1.576
					c0-0.869,0.706-1.576,1.576-1.576c0.177,0,0.344,0.03,0.503,0.082c-0.052,0.109-0.079,0.231-0.079,0.358
					c0,0.478,0.387,0.865,0.865,0.865c0.088,0,0.174-0.013,0.256-0.038C502.904,955.535,502.916,955.639,502.916,955.745" style="fill:#444444;"/>
			</g>
      <g>
				<path d="M496.947,955.745c0,0.658-0.534,1.192-1.192,1.192c-0.658,0-1.192-0.534-1.192-1.192
					s0.534-1.192,1.192-1.192c0.133,0,0.26,0.022,0.38,0.062c-0.04,0.082-0.06,0.175-0.06,0.271c0,0.361,0.293,0.654,0.654,0.654
					c0.067,0,0.132-0.01,0.193-0.029C496.938,955.586,496.947,955.665,496.947,955.745" style="fill:#444444;"/>
			</g>
      <g>
				<g>
					<g>
						<rect height="1.077" style="fill:#606060;" width="1.077" x="487.589" y="957.09"/>
					</g>
          <g>
						<rect height="1.077" style="fill:#606060;" width="1.077" x="508.448" y="957.09"/>
					</g>
          <g>
						<path d="M509.109,957.531h-0.245c0-5.683-4.624-10.307-10.307-10.307
							c-5.683,0-10.307,4.624-10.307,10.307h-0.245c0-2.819,1.098-5.468,3.091-7.461c1.993-1.993,4.643-3.091,7.461-3.091
							c2.819,0,5.469,1.098,7.462,3.091C508.011,952.062,509.109,954.712,509.109,957.531" style="fill:#606060;"/>
					</g>
				</g>
        <g>
					<rect height="1.077" style="fill:#606060;" width="1.077" x="498.018" y="946.562"/>
				</g>
        <g>
					<rect height="0.245" style="fill:#606060;" width="14.788" x="491.163" y="946.979"/>
				</g>
        <g>
					<path d="M491.555,947.15c0,0.189-0.153,0.343-0.343,0.343c-0.189,0-0.343-0.154-0.343-0.343
						s0.153-0.343,0.343-0.343C491.401,946.807,491.555,946.961,491.555,947.15" style="fill:#606060;"/>
				</g>
        <g>
					<path d="M506.293,947.15c0,0.189-0.153,0.343-0.343,0.343c-0.189,0-0.343-0.154-0.343-0.343
						s0.153-0.343,0.343-0.343C506.14,946.807,506.293,946.961,506.293,947.15" style="fill:#606060;"/>
				</g>
			</g>
		</g>
    <g>
			<path d="M612.624,966.854c0,2.729-4.136,2.729-4.136,0C608.487,964.128,612.624,964.128,612.624,966.854z"
            style="fill:#606060;"
      />
		</g>
    <g>
			<g>
				<g>
					<path d="M345.544,954.85l3.102,10.653l3.246-10.653h3.877l-4.94,14.245h-4.078l-1.465-4.193l-1.264-4.74
						l-1.263,4.74l-1.465,4.193h-4.078l-4.968-14.245h3.905l3.246,10.653l3.073-10.653H345.544z" style="fill:#606060;"/>
				</g>
        <g>
					<path d="M371.748,954.85l3.102,10.653l3.246-10.653h3.877l-4.94,14.245h-4.078l-1.465-4.193l-1.263-4.74
						l-1.264,4.74l-1.465,4.193h-4.078l-4.968-14.245h3.905l3.246,10.653l3.073-10.653H371.748z" style="fill:#606060;"/>
				</g>
        <g>
					<path d="M397.952,954.85l3.102,10.653l3.246-10.653h3.877l-4.94,14.245h-4.078l-1.465-4.193l-1.264-4.74
						l-1.263,4.74l-1.465,4.193h-4.078l-4.968-14.245h3.905l3.246,10.653l3.073-10.653H397.952z" style="fill:#606060;"/>
				</g>
			</g>
      <g>
				<path d="M414.089,967.048c0,2.729-4.136,2.729-4.136,0C409.953,964.321,414.089,964.321,414.089,967.048z
					" style="fill:#606060;"/>
			</g>
      <g>
				<path d="M627.243,966.854c-1.637,1.609-3.358,2.24-5.455,2.24c-4.106,0-7.525-2.469-7.525-7.494
					c0-5.025,3.419-7.497,7.525-7.497c2.011,0,3.561,0.575,5.112,2.097l-2.212,2.327c-0.832-0.748-1.866-1.12-2.841-1.12
					c-2.355,0-4.078,1.723-4.078,4.193c0,2.698,1.838,4.134,4.02,4.134c1.12,0,2.24-0.316,3.101-1.176L627.243,966.854z" style="fill:#606060;"/>
			</g>
      <g>
				<path d="M643.159,961.715c0,4.078-2.785,7.38-7.38,7.38c-4.595,0-7.352-3.302-7.352-7.38
					c0-4.05,2.815-7.38,7.324-7.38C640.26,954.335,643.159,957.665,643.159,961.715z M631.931,961.715
					c0,2.154,1.293,4.165,3.849,4.165c2.556,0,3.849-2.011,3.849-4.165c0-2.125-1.494-4.193-3.849-4.193
					C633.252,957.522,631.931,959.589,631.931,961.715z" style="fill:#606060;"/>
			</g>
      <g>
				<path d="M655.001,969.094v-7.581c0-1.868-0.977-3.561-2.902-3.561c-1.894,0-3.014,1.693-3.014,3.561
					v7.581h-3.505v-14.186h3.246l0.26,1.723c0.746-1.436,2.383-1.952,3.732-1.952c1.695,0,3.391,0.69,4.193,2.642
					c1.265-2.011,2.902-2.586,4.74-2.586c4.02,0,6.002,2.472,6.002,6.72v7.639h-3.505v-7.639c0-1.866-0.774-3.447-2.67-3.447
					c-1.894,0-3.073,1.637-3.073,3.505v7.581H655.001z" style="fill:#606060;"/>
			</g>
		</g>
	</g>
  <g>
		<path d="M333.081,934.351v-10.75h3.288c1.642,0,2.96,0.495,3.956,1.486s1.494,2.287,1.494,3.889
			c0,1.611-0.498,2.91-1.494,3.896c-0.996,0.985-2.314,1.479-3.956,1.479H333.081z M334.462,924.922v8.107h1.907
			c1.251,0,2.237-0.357,2.958-1.073s1.081-1.709,1.081-2.98c0-1.262-0.36-2.252-1.081-2.973s-1.707-1.081-2.958-1.081H334.462z" style="fill:#606060;"/>
    <path d="M342.57,930.672c0-1.131,0.355-2.066,1.066-2.808c0.721-0.74,1.626-1.111,2.718-1.111
			c1.091,0,1.992,0.371,2.703,1.111c0.721,0.741,1.081,1.677,1.081,2.808c0,1.142-0.36,2.077-1.081,2.808
			c-0.711,0.741-1.612,1.111-2.703,1.111c-1.091,0-1.997-0.37-2.718-1.111C342.925,932.739,342.57,931.804,342.57,930.672z
			 M343.952,930.672c0,0.791,0.23,1.432,0.69,1.922s1.031,0.736,1.712,0.736s1.251-0.246,1.711-0.736s0.691-1.131,0.691-1.922
			c0-0.78-0.23-1.416-0.691-1.906c-0.471-0.501-1.041-0.751-1.711-0.751c-0.671,0-1.241,0.25-1.712,0.751
			C344.182,929.256,343.952,929.892,343.952,930.672z" style="fill:#606060;"/>
    <path d="M361.668,926.993l-2.372,7.357h-1.412l-1.832-5.646l-1.817,5.646h-1.396l-2.372-7.357h1.441
			l1.637,5.556h0.015l1.817-5.556h1.426l1.817,5.556h0.015l1.622-5.556H361.668z" style="fill:#606060;"/>
    <path d="M362.569,926.993h1.321v1.021h0.06c0.21-0.36,0.533-0.661,0.968-0.901s0.888-0.36,1.359-0.36
			c0.901,0,1.594,0.258,2.08,0.773c0.485,0.516,0.728,1.249,0.728,2.2v4.624h-1.381v-4.534c-0.03-1.201-0.636-1.802-1.816-1.802
			c-0.551,0-1.011,0.223-1.381,0.668c-0.371,0.445-0.556,0.979-0.556,1.599v4.069h-1.381V926.993z" style="fill:#606060;"/>
    <path d="M372.088,923.601v10.75h-1.381v-10.75H372.088z" style="fill:#606060;"/>
    <path d="M373.275,930.672c0-1.131,0.355-2.066,1.066-2.808c0.721-0.74,1.626-1.111,2.718-1.111
			c1.091,0,1.992,0.371,2.703,1.111c0.721,0.741,1.081,1.677,1.081,2.808c0,1.142-0.36,2.077-1.081,2.808
			c-0.711,0.741-1.612,1.111-2.703,1.111c-1.091,0-1.997-0.37-2.718-1.111C373.63,932.739,373.275,931.804,373.275,930.672z
			 M374.656,930.672c0,0.791,0.23,1.432,0.69,1.922s1.031,0.736,1.712,0.736s1.251-0.246,1.711-0.736s0.691-1.131,0.691-1.922
			c0-0.78-0.23-1.416-0.691-1.906c-0.471-0.501-1.041-0.751-1.711-0.751c-0.671,0-1.241,0.25-1.712,0.751
			C374.886,929.256,374.656,929.892,374.656,930.672z" style="fill:#606060;"/>
    <path d="M384.896,926.753c1.021,0,1.827,0.273,2.417,0.818c0.59,0.546,0.886,1.294,0.886,2.245v4.534
			h-1.321v-1.021h-0.06c-0.57,0.841-1.331,1.261-2.282,1.261c-0.811,0-1.489-0.24-2.034-0.721c-0.546-0.48-0.818-1.081-0.818-1.802
			c0-0.761,0.288-1.366,0.863-1.816c0.576-0.451,1.344-0.676,2.305-0.676c0.821,0,1.496,0.15,2.027,0.45v-0.315
			c0-0.48-0.19-0.888-0.57-1.224c-0.381-0.335-0.826-0.503-1.336-0.503c-0.771,0-1.381,0.325-1.832,0.977l-1.216-0.767
			C382.594,927.233,383.585,926.753,384.896,926.753z M383.109,932.099c0,0.36,0.152,0.66,0.458,0.9
			c0.305,0.24,0.663,0.36,1.074,0.36c0.58,0,1.098-0.215,1.554-0.646c0.456-0.43,0.683-0.936,0.683-1.517
			c-0.43-0.34-1.031-0.51-1.802-0.51c-0.561,0-1.028,0.135-1.404,0.405C383.297,931.362,383.109,931.698,383.109,932.099z" style="fill:#606060;"/>
    <path d="M392.764,934.591c-0.961,0-1.787-0.38-2.478-1.141c-0.681-0.771-1.021-1.697-1.021-2.778
			s0.34-2.007,1.021-2.777c0.69-0.761,1.517-1.142,2.478-1.142c0.541,0,1.033,0.115,1.479,0.346s0.789,0.535,1.029,0.916h0.06
			l-0.06-1.021v-3.393h1.381v10.75h-1.321v-1.021h-0.06c-0.24,0.38-0.583,0.686-1.029,0.915
			C393.797,934.476,393.305,934.591,392.764,934.591z M392.989,933.33c0.681,0,1.236-0.246,1.667-0.736
			c0.45-0.49,0.676-1.131,0.676-1.922c0-0.771-0.226-1.406-0.676-1.906c-0.44-0.501-0.996-0.751-1.667-0.751
			c-0.661,0-1.216,0.25-1.667,0.751c-0.451,0.5-0.676,1.136-0.676,1.906c0,0.781,0.225,1.417,0.676,1.907
			C391.773,933.079,392.329,933.33,392.989,933.33z" style="fill:#606060;"/>
    <path d="M401.876,934.351v-10.75h3.784c0.51,0,0.988,0.082,1.434,0.247
			c0.445,0.166,0.833,0.398,1.164,0.698c0.331,0.301,0.591,0.658,0.781,1.074c0.19,0.415,0.286,0.873,0.286,1.373
			c0,0.511-0.095,0.974-0.286,1.39c-0.19,0.415-0.45,0.772-0.781,1.073c-0.33,0.3-0.718,0.533-1.164,0.698s-0.923,0.247-1.434,0.247
			h-1.757v3.949H401.876z M405.689,928.48c0.531,0,0.931-0.15,1.201-0.451c0.271-0.3,0.405-0.646,0.405-1.036
			c0-0.189-0.032-0.375-0.097-0.555c-0.065-0.181-0.166-0.338-0.3-0.474c-0.135-0.135-0.303-0.242-0.503-0.322
			s-0.435-0.12-0.706-0.12h-1.787v2.958H405.689z" style="fill:#606060;"/>
    <path d="M410.764,923.601h2.357l4.324,7.207h0.12l-0.12-2.072v-5.135h2.012v10.75h-2.132l-4.564-7.612
			h-0.12l0.12,2.072v5.54h-1.997V923.601z" style="fill:#606060;"/>
    <path d="M426.574,928.45h5.27c0.03,0.12,0.055,0.265,0.075,0.436c0.02,0.17,0.03,0.34,0.03,0.51
			c0,0.691-0.105,1.342-0.315,1.952c-0.21,0.61-0.541,1.156-0.991,1.637c-0.48,0.511-1.056,0.906-1.727,1.187
			c-0.671,0.279-1.437,0.42-2.297,0.42c-0.781,0-1.517-0.141-2.207-0.42c-0.691-0.28-1.292-0.671-1.802-1.172
			c-0.511-0.5-0.916-1.093-1.216-1.779c-0.3-0.686-0.45-1.434-0.45-2.244s0.15-1.559,0.45-2.245c0.3-0.686,0.706-1.278,1.216-1.779
			c0.51-0.5,1.111-0.891,1.802-1.171c0.69-0.28,1.426-0.42,2.207-0.42c0.871,0,1.649,0.15,2.334,0.45
			c0.686,0.301,1.274,0.716,1.764,1.246l-1.396,1.366c-0.351-0.37-0.741-0.653-1.171-0.848c-0.43-0.195-0.946-0.293-1.546-0.293
			c-0.49,0-0.956,0.088-1.396,0.263c-0.441,0.175-0.826,0.423-1.156,0.743c-0.331,0.32-0.593,0.708-0.789,1.163
			c-0.195,0.456-0.292,0.964-0.292,1.524s0.098,1.068,0.292,1.523c0.195,0.456,0.46,0.844,0.796,1.164s0.723,0.568,1.164,0.743
			s0.911,0.263,1.412,0.263c0.57,0,1.053-0.083,1.449-0.248s0.733-0.377,1.014-0.638c0.2-0.181,0.373-0.408,0.518-0.684
			c0.145-0.274,0.258-0.583,0.338-0.923h-3.378V928.45z" style="fill:#606060;"/>
    <path d="M436.934,934.351v-10.75h3.784c0.51,0,0.988,0.082,1.434,0.247
			c0.445,0.166,0.833,0.398,1.164,0.698c0.331,0.301,0.591,0.658,0.781,1.074c0.19,0.415,0.286,0.873,0.286,1.373
			c0,0.511-0.095,0.974-0.286,1.39c-0.19,0.415-0.45,0.772-0.781,1.073c-0.33,0.3-0.718,0.533-1.164,0.698s-0.923,0.247-1.434,0.247
			h-1.757v3.949H436.934z M440.747,928.48c0.531,0,0.931-0.15,1.201-0.451c0.271-0.3,0.405-0.646,0.405-1.036
			c0-0.189-0.032-0.375-0.097-0.555c-0.065-0.181-0.166-0.338-0.3-0.474c-0.135-0.135-0.303-0.242-0.503-0.322
			s-0.435-0.12-0.706-0.12h-1.787v2.958H440.747z" style="fill:#606060;"/>
    <path d="M449.11,934.591c-0.46,0-0.901-0.065-1.321-0.195s-0.806-0.325-1.156-0.585
			c-0.35-0.261-0.655-0.578-0.916-0.954c-0.261-0.375-0.466-0.812-0.616-1.313l1.907-0.751c0.14,0.541,0.385,0.989,0.736,1.344
			c0.35,0.355,0.811,0.533,1.381,0.533c0.21,0,0.413-0.027,0.608-0.083c0.195-0.055,0.37-0.135,0.525-0.24
			c0.155-0.104,0.278-0.237,0.368-0.397c0.09-0.16,0.135-0.346,0.135-0.556c0-0.2-0.035-0.38-0.105-0.54s-0.188-0.311-0.353-0.451
			c-0.166-0.14-0.381-0.274-0.646-0.405c-0.265-0.13-0.593-0.265-0.983-0.405l-0.661-0.24c-0.29-0.1-0.583-0.234-0.878-0.405
			c-0.295-0.17-0.563-0.375-0.804-0.615s-0.438-0.523-0.593-0.849c-0.155-0.325-0.233-0.693-0.233-1.104
			c0-0.42,0.083-0.813,0.248-1.179c0.165-0.365,0.4-0.686,0.706-0.961c0.305-0.275,0.67-0.49,1.096-0.646
			c0.426-0.155,0.898-0.232,1.419-0.232c0.541,0,1.008,0.072,1.404,0.218c0.396,0.145,0.73,0.33,1.006,0.556
			c0.275,0.225,0.498,0.473,0.668,0.743c0.17,0.27,0.295,0.525,0.375,0.766l-1.787,0.75c-0.1-0.3-0.283-0.57-0.548-0.811
			s-0.628-0.36-1.088-0.36c-0.441,0-0.806,0.103-1.096,0.308c-0.291,0.206-0.436,0.474-0.436,0.804c0,0.32,0.14,0.593,0.42,0.818
			c0.28,0.225,0.726,0.442,1.336,0.653l0.676,0.225c0.43,0.15,0.823,0.323,1.179,0.519c0.355,0.195,0.661,0.428,0.916,0.698
			c0.255,0.27,0.451,0.578,0.585,0.923c0.135,0.346,0.203,0.743,0.203,1.193c0,0.562-0.113,1.044-0.338,1.449
			c-0.226,0.405-0.513,0.738-0.863,0.999c-0.351,0.26-0.746,0.455-1.187,0.585S449.53,934.591,449.11,934.591z" style="fill:#606060;"/>
    <path d="M454.455,923.601h3.633c0.851,0,1.617,0.13,2.297,0.391c0.681,0.26,1.261,0.628,1.742,1.104
			c0.48,0.475,0.848,1.043,1.104,1.704c0.255,0.66,0.383,1.386,0.383,2.177c0,0.801-0.127,1.531-0.383,2.192
			c-0.255,0.66-0.623,1.226-1.104,1.696s-1.061,0.836-1.742,1.096c-0.681,0.261-1.447,0.391-2.297,0.391h-3.633V923.601z
			 M457.999,932.429c0.59,0,1.111-0.083,1.562-0.248c0.45-0.165,0.826-0.397,1.126-0.698c0.3-0.3,0.525-0.662,0.676-1.088
			c0.15-0.426,0.225-0.898,0.225-1.419s-0.075-0.993-0.225-1.419c-0.15-0.426-0.375-0.788-0.676-1.089
			c-0.3-0.3-0.676-0.532-1.126-0.698c-0.451-0.165-0.971-0.247-1.562-0.247h-1.517v6.906H457.999z" style="fill:#606060;"/>
    <path d="M471.391,934.591c-0.46,0-0.901-0.065-1.321-0.195s-0.806-0.325-1.156-0.585
			c-0.35-0.261-0.655-0.578-0.916-0.954c-0.261-0.375-0.466-0.812-0.616-1.313l1.907-0.751c0.14,0.541,0.385,0.989,0.736,1.344
			c0.35,0.355,0.811,0.533,1.381,0.533c0.21,0,0.413-0.027,0.608-0.083c0.195-0.055,0.37-0.135,0.525-0.24
			c0.155-0.104,0.278-0.237,0.368-0.397c0.09-0.16,0.135-0.346,0.135-0.556c0-0.2-0.035-0.38-0.105-0.54s-0.188-0.311-0.353-0.451
			c-0.166-0.14-0.381-0.274-0.646-0.405c-0.265-0.13-0.593-0.265-0.983-0.405l-0.661-0.24c-0.29-0.1-0.583-0.234-0.878-0.405
			c-0.295-0.17-0.563-0.375-0.804-0.615s-0.438-0.523-0.593-0.849c-0.155-0.325-0.233-0.693-0.233-1.104
			c0-0.42,0.083-0.813,0.248-1.179c0.165-0.365,0.4-0.686,0.706-0.961c0.305-0.275,0.67-0.49,1.096-0.646
			c0.426-0.155,0.898-0.232,1.419-0.232c0.541,0,1.008,0.072,1.404,0.218c0.396,0.145,0.73,0.33,1.006,0.556
			c0.275,0.225,0.498,0.473,0.668,0.743c0.17,0.27,0.295,0.525,0.375,0.766l-1.787,0.75c-0.1-0.3-0.283-0.57-0.548-0.811
			s-0.628-0.36-1.088-0.36c-0.441,0-0.806,0.103-1.096,0.308c-0.291,0.206-0.436,0.474-0.436,0.804c0,0.32,0.14,0.593,0.42,0.818
			c0.28,0.225,0.726,0.442,1.336,0.653l0.676,0.225c0.43,0.15,0.823,0.323,1.179,0.519c0.355,0.195,0.661,0.428,0.916,0.698
			c0.255,0.27,0.451,0.578,0.585,0.923c0.135,0.346,0.203,0.743,0.203,1.193c0,0.562-0.113,1.044-0.338,1.449
			c-0.226,0.405-0.513,0.738-0.863,0.999c-0.351,0.26-0.746,0.455-1.187,0.585S471.811,934.591,471.391,934.591z" style="fill:#606060;"/>
    <path d="M475.685,923.601h2.192l2.222,6.471l0.391,1.382h0.12l0.42-1.382l2.312-6.471h2.192l-3.918,10.75
			h-2.132L475.685,923.601z" style="fill:#606060;"/>
    <path d="M491.45,928.45h5.27c0.03,0.12,0.055,0.265,0.075,0.436c0.02,0.17,0.03,0.34,0.03,0.51
			c0,0.691-0.105,1.342-0.315,1.952c-0.21,0.61-0.541,1.156-0.991,1.637c-0.48,0.511-1.056,0.906-1.727,1.187
			c-0.671,0.279-1.437,0.42-2.297,0.42c-0.781,0-1.517-0.141-2.207-0.42c-0.691-0.28-1.292-0.671-1.802-1.172
			c-0.511-0.5-0.916-1.093-1.216-1.779c-0.3-0.686-0.45-1.434-0.45-2.244s0.15-1.559,0.45-2.245c0.3-0.686,0.706-1.278,1.216-1.779
			c0.51-0.5,1.111-0.891,1.802-1.171c0.69-0.28,1.426-0.42,2.207-0.42c0.871,0,1.649,0.15,2.334,0.45
			c0.686,0.301,1.274,0.716,1.764,1.246l-1.396,1.366c-0.351-0.37-0.741-0.653-1.171-0.848c-0.43-0.195-0.946-0.293-1.546-0.293
			c-0.49,0-0.956,0.088-1.396,0.263c-0.441,0.175-0.826,0.423-1.156,0.743c-0.331,0.32-0.593,0.708-0.789,1.163
			c-0.195,0.456-0.292,0.964-0.292,1.524s0.098,1.068,0.292,1.523c0.195,0.456,0.46,0.844,0.796,1.164s0.723,0.568,1.164,0.743
			s0.911,0.263,1.412,0.263c0.57,0,1.053-0.083,1.449-0.248s0.733-0.377,1.014-0.638c0.2-0.181,0.373-0.408,0.518-0.684
			c0.145-0.274,0.258-0.583,0.338-0.923h-3.378V928.45z" style="fill:#606060;"/>
    <path d="M503.837,925.522v2.492h4.309v1.922h-4.309v2.492h4.789v1.922h-6.816v-10.75h6.816v1.922H503.837z"
          style="fill:#606060;"
    />
    <path d="M510.487,934.351v-10.75h3.783c0.511,0,0.988,0.082,1.435,0.247
			c0.445,0.166,0.833,0.398,1.163,0.698c0.33,0.301,0.591,0.658,0.781,1.074c0.189,0.415,0.285,0.873,0.285,1.373
			c0,0.511-0.096,0.974-0.285,1.39c-0.19,0.415-0.451,0.772-0.781,1.073c-0.33,0.3-0.718,0.533-1.163,0.698
			c-0.446,0.165-0.924,0.247-1.435,0.247h-1.756v3.949H510.487z M514.301,928.48c0.53,0,0.931-0.15,1.201-0.451
			c0.271-0.3,0.405-0.646,0.405-1.036c0-0.189-0.032-0.375-0.098-0.555c-0.065-0.181-0.165-0.338-0.3-0.474
			c-0.136-0.135-0.303-0.242-0.503-0.322s-0.436-0.12-0.706-0.12h-1.786v2.958H514.301z" style="fill:#606060;"/>
    <path d="M522.664,934.591c-0.461,0-0.9-0.065-1.321-0.195c-0.42-0.13-0.806-0.325-1.156-0.585
			c-0.351-0.261-0.655-0.578-0.916-0.954c-0.26-0.375-0.465-0.812-0.615-1.313l1.907-0.751c0.14,0.541,0.385,0.989,0.735,1.344
			c0.351,0.355,0.811,0.533,1.381,0.533c0.211,0,0.413-0.027,0.608-0.083c0.195-0.055,0.37-0.135,0.525-0.24
			c0.155-0.104,0.278-0.237,0.368-0.397s0.135-0.346,0.135-0.556c0-0.2-0.035-0.38-0.104-0.54c-0.07-0.16-0.188-0.311-0.354-0.451
			c-0.165-0.14-0.38-0.274-0.646-0.405c-0.266-0.13-0.593-0.265-0.983-0.405l-0.66-0.24c-0.291-0.1-0.584-0.234-0.879-0.405
			c-0.295-0.17-0.562-0.375-0.803-0.615s-0.438-0.523-0.594-0.849s-0.232-0.693-0.232-1.104c0-0.42,0.083-0.813,0.248-1.179
			s0.4-0.686,0.705-0.961c0.306-0.275,0.671-0.49,1.097-0.646c0.425-0.155,0.898-0.232,1.419-0.232c0.54,0,1.008,0.072,1.403,0.218
			c0.396,0.145,0.73,0.33,1.006,0.556c0.275,0.225,0.498,0.473,0.668,0.743c0.171,0.27,0.296,0.525,0.376,0.766l-1.787,0.75
			c-0.1-0.3-0.282-0.57-0.548-0.811s-0.628-0.36-1.089-0.36c-0.44,0-0.806,0.103-1.096,0.308c-0.29,0.206-0.436,0.474-0.436,0.804
			c0,0.32,0.141,0.593,0.421,0.818c0.28,0.225,0.726,0.442,1.336,0.653l0.676,0.225c0.43,0.15,0.823,0.323,1.179,0.519
			c0.354,0.195,0.66,0.428,0.916,0.698c0.255,0.27,0.45,0.578,0.585,0.923c0.136,0.346,0.203,0.743,0.203,1.193
			c0,0.562-0.113,1.044-0.338,1.449c-0.226,0.405-0.514,0.738-0.863,0.999c-0.351,0.26-0.746,0.455-1.187,0.585
			S523.085,934.591,522.664,934.591z" style="fill:#606060;"/>
    <path d="M535.996,929.741v4.609h-1.381v-10.75h6.276v1.321h-4.896v3.528h4.415v1.291H535.996z" style="fill:#606060;"/>
    <path d="M541.341,930.672c0-1.131,0.355-2.066,1.066-2.808c0.721-0.74,1.627-1.111,2.718-1.111
			s1.991,0.371,2.702,1.111c0.721,0.741,1.081,1.677,1.081,2.808c0,1.142-0.36,2.077-1.081,2.808
			c-0.711,0.741-1.611,1.111-2.702,1.111s-1.997-0.37-2.718-1.111C541.696,932.739,541.341,931.804,541.341,930.672z
			 M542.723,930.672c0,0.791,0.23,1.432,0.69,1.922c0.461,0.49,1.031,0.736,1.712,0.736s1.251-0.246,1.712-0.736
			c0.46-0.49,0.69-1.131,0.69-1.922c0-0.78-0.23-1.416-0.69-1.906c-0.471-0.501-1.042-0.751-1.712-0.751
			c-0.671,0-1.241,0.25-1.712,0.751C542.953,929.256,542.723,929.892,542.723,930.672z" style="fill:#606060;"/>
    <path d="M551.4,934.351h-1.381v-7.357h1.321v1.201h0.06c0.141-0.39,0.429-0.723,0.863-0.998
			c0.436-0.275,0.864-0.413,1.284-0.413c0.4,0,0.74,0.061,1.021,0.181l-0.42,1.336c-0.17-0.07-0.44-0.105-0.811-0.105
			c-0.521,0-0.974,0.211-1.359,0.631c-0.385,0.421-0.578,0.911-0.578,1.472V934.351z" style="fill:#606060;"/>
    <path d="M556.851,934.351h-1.381v-7.357h1.321v1.021h0.06c0.211-0.36,0.533-0.661,0.969-0.901
			s0.868-0.36,1.299-0.36c0.54,0,1.016,0.126,1.427,0.376c0.41,0.25,0.71,0.596,0.9,1.036c0.61-0.941,1.456-1.412,2.537-1.412
			c0.851,0,1.507,0.261,1.967,0.781c0.461,0.521,0.691,1.261,0.691,2.222v4.595h-1.382v-4.384c0-0.691-0.125-1.188-0.375-1.494
			s-0.671-0.458-1.262-0.458c-0.53,0-0.976,0.226-1.336,0.676s-0.54,0.98-0.54,1.591v4.069h-1.382v-4.384
			c0-0.691-0.125-1.188-0.375-1.494c-0.251-0.306-0.671-0.458-1.262-0.458c-0.53,0-0.976,0.226-1.336,0.676s-0.541,0.98-0.541,1.591
			V934.351z" style="fill:#606060;"/>
    <path d="M570.979,926.753c1.021,0,1.826,0.273,2.417,0.818c0.591,0.546,0.886,1.294,0.886,2.245v4.534
			h-1.321v-1.021h-0.06c-0.571,0.841-1.332,1.261-2.282,1.261c-0.812,0-1.489-0.24-2.035-0.721c-0.545-0.48-0.818-1.081-0.818-1.802
			c0-0.761,0.288-1.366,0.864-1.816c0.575-0.451,1.344-0.676,2.305-0.676c0.82,0,1.496,0.15,2.026,0.45v-0.315
			c0-0.48-0.19-0.888-0.57-1.224c-0.381-0.335-0.826-0.503-1.336-0.503c-0.771,0-1.382,0.325-1.832,0.977l-1.217-0.767
			C568.677,927.233,569.668,926.753,570.979,926.753z M569.192,932.099c0,0.36,0.152,0.66,0.458,0.9s0.663,0.36,1.073,0.36
			c0.581,0,1.099-0.215,1.555-0.646c0.455-0.43,0.683-0.936,0.683-1.517c-0.431-0.34-1.031-0.51-1.802-0.51
			c-0.561,0-1.028,0.135-1.403,0.405C569.38,931.362,569.192,931.698,569.192,932.099z" style="fill:#606060;"/>
    <path d="M578.607,934.471c-0.601,0-1.099-0.186-1.494-0.556s-0.599-0.886-0.608-1.546v-4.114h-1.291v-1.262
			h1.291v-2.252h1.382v2.252h1.802v1.262h-1.802v3.663c0,0.491,0.095,0.824,0.285,0.999c0.189,0.175,0.405,0.263,0.646,0.263
			c0.11,0,0.218-0.013,0.322-0.038c0.105-0.024,0.203-0.058,0.293-0.098l0.436,1.231
			C579.508,934.405,579.088,934.471,578.607,934.471z" style="fill:#606060;"/>
    <path d="M586.788,932.309c0,0.641-0.28,1.182-0.841,1.622c-0.561,0.439-1.266,0.66-2.116,0.66
			c-0.741,0-1.392-0.192-1.952-0.578c-0.561-0.385-0.961-0.894-1.201-1.523l1.231-0.526c0.18,0.441,0.442,0.784,0.788,1.029
			c0.345,0.245,0.723,0.367,1.134,0.367c0.44,0,0.808-0.095,1.104-0.285c0.295-0.189,0.442-0.415,0.442-0.676
			c0-0.47-0.36-0.815-1.081-1.036l-1.261-0.314c-1.432-0.36-2.147-1.052-2.147-2.072c0-0.671,0.272-1.209,0.818-1.614
			s1.244-0.608,2.095-0.608c0.65,0,1.238,0.155,1.764,0.466c0.526,0.311,0.894,0.726,1.104,1.246l-1.23,0.511
			c-0.141-0.311-0.368-0.553-0.684-0.729c-0.315-0.175-0.668-0.263-1.059-0.263c-0.36,0-0.683,0.09-0.968,0.271
			c-0.285,0.18-0.429,0.4-0.429,0.66c0,0.421,0.396,0.721,1.187,0.901l1.111,0.285C586.058,930.462,586.788,931.197,586.788,932.309
			z" style="fill:#606060;"/>
    <path d="M592.913,934.351h-1.381v-10.75h1.381V934.351z" style="fill:#606060;"/>
    <path d="M594.835,926.993h1.321v1.021h0.06c0.211-0.36,0.533-0.661,0.969-0.901s0.889-0.36,1.359-0.36
			c0.9,0,1.594,0.258,2.079,0.773s0.729,1.249,0.729,2.2v4.624h-1.382v-4.534c-0.03-1.201-0.636-1.802-1.816-1.802
			c-0.551,0-1.012,0.223-1.382,0.668s-0.556,0.979-0.556,1.599v4.069h-1.381V926.993z" style="fill:#606060;"/>
    <path d="M612.702,931.482c0,0.941-0.346,1.697-1.036,2.268c-0.701,0.561-1.552,0.841-2.553,0.841
			c-0.891,0-1.677-0.26-2.357-0.78s-1.151-1.231-1.411-2.133l1.321-0.54c0.09,0.32,0.215,0.61,0.375,0.871
			c0.16,0.26,0.348,0.482,0.563,0.668c0.215,0.186,0.453,0.33,0.713,0.436c0.261,0.104,0.535,0.157,0.826,0.157
			c0.631,0,1.146-0.162,1.546-0.488c0.4-0.325,0.601-0.758,0.601-1.299c0-0.45-0.165-0.835-0.495-1.155
			c-0.311-0.311-0.891-0.61-1.741-0.901c-0.861-0.31-1.396-0.521-1.607-0.631c-1.141-0.58-1.711-1.436-1.711-2.567
			c0-0.79,0.315-1.466,0.945-2.026c0.641-0.561,1.427-0.841,2.357-0.841c0.82,0,1.531,0.21,2.132,0.631
			c0.601,0.41,1.001,0.926,1.201,1.546l-1.291,0.541c-0.12-0.4-0.357-0.733-0.713-0.999c-0.355-0.265-0.788-0.397-1.299-0.397
			c-0.541,0-0.996,0.149-1.366,0.45c-0.371,0.28-0.556,0.646-0.556,1.096c0,0.371,0.145,0.691,0.436,0.961
			c0.32,0.271,1.016,0.591,2.087,0.961c1.091,0.371,1.869,0.823,2.335,1.359C612.469,930.044,612.702,930.702,612.702,931.482z" style="fill:#606060;"/>
    <path d="M615.915,924.456c0,0.271-0.096,0.501-0.286,0.69c-0.189,0.19-0.42,0.285-0.69,0.285
			s-0.5-0.095-0.69-0.285c-0.19-0.189-0.285-0.42-0.285-0.69s0.095-0.5,0.285-0.69s0.42-0.285,0.69-0.285s0.501,0.095,0.69,0.285
			C615.819,923.956,615.915,924.186,615.915,924.456z M615.629,926.993v7.357h-1.381v-7.357H615.629z" style="fill:#606060;"/>
    <path d="M617.431,926.993h1.321v1.021h0.06c0.211-0.36,0.533-0.661,0.969-0.901s0.889-0.36,1.359-0.36
			c0.9,0,1.594,0.258,2.079,0.773s0.729,1.249,0.729,2.2v4.624h-1.382v-4.534c-0.03-1.201-0.636-1.802-1.816-1.802
			c-0.551,0-1.012,0.223-1.382,0.668s-0.556,0.979-0.556,1.599v4.069h-1.381V926.993z" style="fill:#606060;"/>
    <path d="M628.751,937.834c-0.41,0-0.796-0.053-1.156-0.158c-0.36-0.104-0.688-0.252-0.983-0.442
			c-0.295-0.19-0.548-0.416-0.758-0.676c-0.21-0.261-0.37-0.551-0.48-0.871l1.307-0.54c0.149,0.43,0.41,0.775,0.78,1.036
			c0.37,0.26,0.801,0.39,1.291,0.39c0.751,0,1.337-0.225,1.757-0.675c0.421-0.451,0.631-1.071,0.631-1.862v-0.705h-0.061
			c-0.26,0.39-0.613,0.697-1.059,0.923s-0.928,0.338-1.448,0.338c-0.961,0-1.787-0.375-2.478-1.126
			c-0.681-0.771-1.021-1.701-1.021-2.793c0-1.091,0.341-2.017,1.021-2.777c0.69-0.761,1.517-1.142,2.478-1.142
			c0.521,0,1.003,0.113,1.448,0.338c0.445,0.226,0.799,0.533,1.059,0.924h0.061v-1.021h1.321v7.042c0,1.181-0.336,2.107-1.006,2.777
			C630.773,937.493,629.872,937.834,628.751,937.834z M628.796,933.33c0.681,0,1.236-0.246,1.667-0.736
			c0.45-0.49,0.676-1.131,0.676-1.922c0-0.771-0.226-1.406-0.676-1.906c-0.44-0.501-0.996-0.751-1.667-0.751
			c-0.66,0-1.216,0.25-1.666,0.751c-0.45,0.5-0.676,1.136-0.676,1.906c0,0.781,0.226,1.417,0.676,1.907
			C627.58,933.079,628.136,933.33,628.796,933.33z" style="fill:#606060;"/>
    <path d="M635.522,923.601v10.75h-1.381v-10.75H635.522z" style="fill:#606060;"/>
    <path d="M640.433,934.591c-1.081,0-1.972-0.37-2.672-1.111c-0.701-0.74-1.052-1.676-1.052-2.808
			c0-1.121,0.341-2.054,1.021-2.8s1.552-1.119,2.612-1.119c1.091,0,1.96,0.354,2.605,1.059c0.646,0.706,0.968,1.694,0.968,2.966
			l-0.015,0.15h-5.78c0.02,0.721,0.26,1.301,0.721,1.741c0.46,0.44,1.011,0.661,1.651,0.661c0.881,0,1.571-0.44,2.072-1.321
			l1.23,0.601c-0.33,0.62-0.788,1.105-1.373,1.456C641.837,934.416,641.174,934.591,640.433,934.591z M638.226,929.786h4.22
			c-0.04-0.511-0.248-0.934-0.623-1.269c-0.376-0.335-0.879-0.503-1.51-0.503c-0.521,0-0.968,0.16-1.344,0.48
			C638.594,928.815,638.346,929.246,638.226,929.786z" style="fill:#606060;"/>
    <path d="M655.507,934.351h-7.387v-1.441l5.721-7.987h-5.48v-1.321h7.087v1.441l-5.721,7.987h5.78V934.351z"
          style="fill:#606060;"
    />
    <path d="M658.735,924.456c0,0.271-0.096,0.501-0.286,0.69c-0.189,0.19-0.42,0.285-0.69,0.285
			s-0.5-0.095-0.69-0.285c-0.19-0.189-0.285-0.42-0.285-0.69s0.095-0.5,0.285-0.69s0.42-0.285,0.69-0.285s0.501,0.095,0.69,0.285
			C658.64,923.956,658.735,924.186,658.735,924.456z M658.449,926.993v7.357h-1.381v-7.357H658.449z" style="fill:#606060;"/>
    <path d="M664.08,934.591c-0.541,0-1.034-0.115-1.479-0.346c-0.445-0.229-0.788-0.535-1.028-0.915h-0.061
			l0.061,1.021v3.243h-1.382v-10.601h1.321v1.021h0.061c0.24-0.381,0.583-0.686,1.028-0.916s0.938-0.346,1.479-0.346
			c0.971,0,1.791,0.381,2.462,1.142c0.69,0.771,1.036,1.696,1.036,2.777c0,1.092-0.346,2.018-1.036,2.778
			C665.871,934.211,665.051,934.591,664.08,934.591z M663.854,933.33c0.66,0,1.216-0.251,1.666-0.751
			c0.451-0.49,0.676-1.126,0.676-1.907c0-0.771-0.225-1.406-0.676-1.906c-0.45-0.501-1.006-0.751-1.666-0.751
			c-0.671,0-1.231,0.25-1.682,0.751c-0.44,0.5-0.661,1.136-0.661,1.906c0,0.781,0.221,1.422,0.661,1.922
			C662.623,933.084,663.184,933.33,663.854,933.33z" style="fill:#606060;"/>
	</g>
</g>
  <g>
</g>
  <g>
	<path d="M447.298,527.073c-18.477,13.636-45.265,20.888-68.334,20.888
		c-32.329,0-61.442-11.951-83.475-31.844c-1.728-1.564-0.187-3.697,1.892-2.487c23.769,13.832,53.165,22.162,83.523,22.162
		c20.48,0,42.994-4.252,63.708-13.039C447.737,521.43,450.357,524.812,447.298,527.073L447.298,527.073z" style="fill-rule:evenodd;clip-rule:evenodd;fill:#F79C34;"/>
    <path d="M454.988,518.292c-2.365-3.025-15.622-1.433-21.579-0.719
		c-1.804,0.218-2.085-1.36-0.459-2.501c10.577-7.43,27.91-5.286,29.924-2.796c2.028,2.507-0.535,19.885-10.444,28.176
		c-1.527,1.275-2.977,0.595-2.3-1.088C452.362,533.792,457.354,521.323,454.988,518.292z" style="fill-rule:evenodd;clip-rule:evenodd;fill:#F79C34;"/>
    <path d="M433.829,462.588v-7.218c0.006-1.099,0.833-1.83,1.83-1.827
		l32.354-0.003c1.034,0,1.867,0.751,1.867,1.821v6.189c-0.011,1.04-0.887,2.394-2.436,4.544l-16.761,23.93
		c6.22-0.144,12.801,0.787,18.455,3.963c1.275,0.717,1.617,1.779,1.717,2.818v7.702c0,1.062-1.161,2.289-2.385,1.651
		c-9.957-5.218-23.171-5.787-34.184,0.062c-1.125,0.6-2.3-0.612-2.3-1.674v-7.322c0-1.17,0.023-3.175,1.204-4.96l19.415-27.856
		l-16.905-0.003C434.664,464.407,433.834,463.67,433.829,462.588L433.829,462.588z M315.81,507.675h-9.843
		c-0.938-0.059-1.685-0.762-1.762-1.663l0.008-50.52c0-1.008,0.85-1.816,1.901-1.816l9.166-0.003
		c0.957,0.048,1.728,0.773,1.787,1.697v6.594h0.187c2.388-6.379,6.889-9.356,12.954-9.356c6.155,0,10.016,2.977,12.772,9.356
		c2.388-6.379,7.81-9.356,13.597-9.356c4.136,0,8.637,1.702,11.393,5.529c3.124,4.255,2.484,10.418,2.484,15.84l-0.011,31.881
		c0,1.006-0.847,1.816-1.898,1.816h-9.829c-0.991-0.062-1.768-0.844-1.768-1.813l-0.003-26.782c0-2.124,0.184-7.438-0.278-9.458
		c-0.734-3.405-2.937-4.362-5.784-4.362c-2.391,0-4.872,1.595-5.883,4.144c-1.011,2.555-0.918,6.804-0.918,9.676v26.78
		c0,1.006-0.85,1.816-1.898,1.816h-9.832c-0.989-0.062-1.768-0.844-1.768-1.813l-0.011-26.782c0-5.634,0.921-13.922-6.062-13.922
		c-7.076,0-6.798,8.076-6.798,13.922l-0.006,26.78C317.708,506.865,316.858,507.675,315.81,507.675z M497.82,462.922
		c-7.257,0-7.716,9.883-7.716,16.05c0,6.167-0.091,19.35,7.628,19.35c7.625,0,7.994-10.631,7.994-17.115
		c0-4.252-0.187-9.356-1.473-13.395C503.151,464.302,500.945,462.922,497.82,462.922L497.82,462.922z M497.733,452.609
		c14.608,0,22.508,12.549,22.508,28.493c0,15.409-8.727,27.638-22.508,27.638c-14.336,0-22.145-12.546-22.145-28.17
		C475.587,464.834,483.487,452.609,497.733,452.609z M539.188,507.675h-9.809c-0.983-0.062-1.765-0.844-1.765-1.813l-0.017-50.537
		c0.085-0.926,0.901-1.649,1.892-1.649l9.13-0.003c0.861,0.045,1.569,0.629,1.751,1.413v7.727h0.184
		c2.759-6.912,6.614-10.206,13.412-10.206c4.41,0,8.73,1.595,11.486,5.954c2.572,4.039,2.572,10.84,2.572,15.732v31.79
		c-0.108,0.895-0.912,1.589-1.887,1.589h-9.866c-0.912-0.057-1.646-0.728-1.753-1.589v-27.428c0-5.529,0.646-13.611-6.155-13.611
		c-2.388,0-4.595,1.595-5.696,4.039c-1.379,3.085-1.564,6.167-1.564,9.571v27.202C541.086,506.865,540.236,507.675,539.188,507.675
		L539.188,507.675z M417.957,507.55c-0.649,0.584-1.586,0.623-2.323,0.229c-3.269-2.716-3.855-3.971-5.643-6.56
		c-5.402,5.504-9.229,7.155-16.228,7.155c-8.285,0-14.732-5.116-14.732-15.341c0-7.991,4.331-13.424,10.498-16.086
		c5.339-2.345,12.798-2.77,18.508-3.41v-1.277c0-2.348,0.184-5.113-1.198-7.138c-1.198-1.813-3.498-2.558-5.524-2.558
		c-3.756,0-7.09,1.923-7.912,5.909c-0.173,0.887-0.819,1.768-1.708,1.813l-9.543-1.034c-0.804-0.184-1.7-0.83-1.47-2.059
		c2.167-11.413,12.359-14.97,21.621-15.067h0.731c4.742,0.059,10.798,1.36,14.486,4.898c4.79,4.476,4.325,10.441,4.325,16.942
		v15.333c0,4.614,1.918,6.637,3.716,9.121c0.632,0.898,0.77,1.96-0.031,2.617c-2.011,1.685-5.583,4.787-7.546,6.538L417.957,507.55z
		 M408.038,483.552c0,3.835,0.091,7.031-1.841,10.441c-1.566,2.767-4.053,4.473-6.815,4.473c-3.773,0-5.982-2.875-5.982-7.138
		c0-8.385,7.518-9.909,14.639-9.909V483.552z M288.929,507.55c-0.652,0.584-1.592,0.623-2.326,0.229
		c-3.272-2.716-3.858-3.971-5.643-6.56c-5.405,5.504-9.229,7.155-16.228,7.155c-8.285,0-14.732-5.116-14.732-15.341
		c0-7.991,4.325-13.424,10.498-16.086c5.339-2.345,12.798-2.77,18.505-3.41v-1.277c0-2.348,0.187-5.113-1.195-7.138
		c-1.198-1.813-3.501-2.558-5.524-2.558c-3.756,0-7.096,1.923-7.912,5.909c-0.17,0.887-0.819,1.768-1.711,1.813l-9.54-1.034
		c-0.807-0.184-1.702-0.83-1.47-2.059c2.161-11.413,12.356-14.97,21.621-15.067h0.731c4.742,0.059,10.798,1.36,14.486,4.898
		c4.787,4.476,4.325,10.441,4.325,16.942v15.333c0,4.614,1.918,6.637,3.716,9.121c0.626,0.898,0.77,1.96-0.031,2.617
		c-2.011,1.685-5.586,4.787-7.549,6.538L288.929,507.55z M279.003,483.552c0,3.835,0.093,7.031-1.841,10.441
		c-1.564,2.767-4.051,4.473-6.815,4.473c-3.773,0-5.983-2.875-5.983-7.138c0-8.385,7.521-9.909,14.639-9.909V483.552z
		 M702.576,525.798v-3.711c0-1.057,0.518-1.785,1.62-1.719c2.056,0.292,4.966,0.583,7.031,0.159
		c2.697-0.561,4.631-2.473,5.776-5.093c1.612-3.688,2.68-6.662,3.354-8.614l-20.477-50.727c-0.346-0.861-0.448-2.459,1.272-2.459
		h7.158c1.365,0,1.92,0.867,2.226,1.717l14.846,41.203l14.172-41.203c0.289-0.844,0.87-1.717,2.224-1.717h6.75
		c1.708,0,1.612,1.595,1.272,2.459l-20.313,52.31c-2.629,6.963-6.13,18.052-14.016,19.979c-3.954,1.034-8.943,0.66-11.871-0.567
		C702.86,527.444,702.576,526.452,702.576,525.798L702.576,525.798z M693.028,504.585c0,0.943-0.773,1.717-1.722,1.717h-5.048
		c-1.091,0-1.836-0.787-1.974-1.717l-0.507-3.436c-2.32,1.963-5.167,3.688-8.254,4.889c-5.937,2.306-12.781,2.688-18.582-0.875
		c-4.195-2.575-6.422-7.608-6.422-12.801c0-4.017,1.238-7.999,3.983-10.891c3.663-3.952,8.971-5.892,15.381-5.892
		c3.872,0,9.413,0.456,13.444,1.773v-6.914c0-7.031-2.96-10.073-10.764-10.073c-5.966,0-10.529,0.901-16.88,2.875
		c-1.017,0.034-1.612-0.739-1.612-1.683v-3.943c0-0.946,0.807-1.861,1.683-2.139c4.535-1.977,10.959-3.209,17.789-3.436
		c8.903,0,19.486,2.008,19.486,15.701V504.585z M683.326,494.489v-10.433c-3.388-0.926-8.994-1.311-11.163-1.311
		c-3.427,0-7.181,0.81-9.141,2.92c-1.464,1.547-2.127,3.767-2.127,5.915c0,2.776,0.96,5.56,3.204,6.937
		c2.606,1.77,6.648,1.555,10.447,0.476C678.196,497.956,681.623,496.124,683.326,494.489z M618.601,460.52
		c11.2,0,14.251,8.807,14.251,18.891c0.062,6.798-1.187,12.86-4.708,16.33c-2.634,2.598-5.577,3.306-10.008,3.306
		c-3.943,0-9.13-2.056-13.005-4.92v-28.833C609.165,462.194,614.312,460.52,618.601,460.52z M603.415,527.608h-6.761
		c-0.946,0-1.719-0.773-1.719-1.717v-70.45c0-0.943,0.773-1.717,1.719-1.717h5.175c1.088,0,1.833,0.787,1.971,1.717l0.544,3.691
		c4.847-4.303,11.087-7.062,17.033-7.062c16.653,0,22.128,13.721,22.128,27.989c0,15.265-8.376,27.53-22.542,27.53
		c-5.966,0-11.543-2.201-15.832-6.025v24.327C605.131,526.835,604.358,527.608,603.415,527.608L603.415,527.608z" style="fill-rule:evenodd;clip-rule:evenodd;fill:#333E47;"/>
</g>
</svg>
