<svg viewBox="0 0 64 64" xmlns="http://www.w3.org/2000/svg">
  <path
    d="M21 48A5 5 0 1021 58 5 5 0 1021 48zM47 48A5 5 0 1047 58 5 5 0 1047 48zM12.489 14.095l-.998-4.24C10.96 7.596 8.945 6 6.625 6H1l1 4h4.625c.464 0 .867.319.973.771l7.093 30.146C15.117 42.731 16.718 44 18.584 44h31.734c1.95 0 3.607-1.395 3.94-3.314l4.093-23.533L12.489 14.095zM34 39c0 0-10.5-6.475-10.5-12.237C23.5 23.58 26.064 21 29.227 21 32.131 21 34 23.113 34 23.113S35.869 21 38.773 21c3.163 0 5.727 2.58 5.727 5.763C44.5 32.525 34 39 34 39z"/>
</svg>
